Coordinates
version=1
nRows=6
nColumns=63
inDegrees=yes

Units are S.I. units (second, meters, Newtons, ...)
If the header above contains a line with 'inDegrees', this indicates whether rotational values are in degrees (yes) or radians (no).

endheader
time	pelvis_tilt	pelvis_list	pelvis_rotation	pelvis_tx	pelvis_ty	pelvis_tz	hip_flexion_r	hip_adduction_r	hip_rotation_r	knee_angle_r	knee_angle_r_beta	ankle_angle_r	subtalar_angle_r	mtp_angle_r	hip_flexion_l	hip_adduction_l	hip_rotation_l	knee_angle_l	knee_angle_l_beta	ankle_angle_l	subtalar_angle_l	mtp_angle_l	L5_S1_Flex_Ext	L5_S1_Lat_Bending	L5_S1_axial_rotation	L4_L5_Flex_Ext	L4_L5_Lat_Bending	L4_L5_axial_rotation	L3_L4_Flex_Ext	L3_L4_Lat_Bending	L3_L4_axial_rotation	L2_L3_Flex_Ext	L2_L3_Lat_Bending	L2_L3_axial_rotation	L1_L2_Flex_Ext	L1_L2_Lat_Bending	L1_L2_axial_rotation	L1_T12_Flex_Ext	L1_T12_Lat_Bending	L1_T12_axial_rotation	Abs_r3	Abs_r2	Abs_r1	Abs_t1	Abs_t2	neck_flexion	neck_bending	neck_rotation	arm_flex_r	arm_add_r	arm_rot_r	elbow_flex_r	pro_sup_r	wrist_flex_r	wrist_dev_r	arm_flex_l	arm_add_l	arm_rot_l	elbow_flex_l	pro_sup_l	wrist_flex_l	wrist_dev_l
2.983333	-2.390729	-1.423269	96.496916	0.445087	0.667714	1.059196	1.948770	-1.345704	-1.153044	4.627512	0.080765	25.119458	-1.157870	0.000000	5.868744	-0.613073	-10.224041	13.466648	0.235037	30.301549	14.336207	0.000000	0.299308	-0.237273	1.374178	0.555846	-0.315573	1.460064	0.491734	-0.576905	1.460064	0.342080	-0.576905	1.202406	0.277938	-0.483847	1.116519	0.171025	-0.367536	1.030633	2.137931	-2.684077	7.642764	0.000000	0.000000	26.775978	1.132478	-0.392574	189.548384	-173.273686	227.257304	36.879386	41.651158	0.584943	9.230906	25.465549	-4.199090	66.768469	37.316028	78.002617	-3.277041	-0.689395
3.000000	-2.455753	-1.292810	96.460520	0.444979	0.668682	1.058634	1.722527	-1.405365	-1.058087	4.542475	0.079281	25.000087	-1.074379	0.000000	5.554290	-0.527239	-10.093990	13.223065	0.230786	30.001551	14.142751	0.000000	0.298369	-0.251007	1.336359	0.554101	-0.333839	1.419882	0.490190	-0.610299	1.419882	0.341006	-0.610299	1.169314	0.277065	-0.511854	1.085792	0.170488	-0.388810	1.002269	2.131218	-2.839443	7.432428	0.000000	0.000000	26.469722	1.308297	-0.997658	189.716895	-173.325334	228.234069	38.985956	36.310816	0.372095	8.686170	25.362989	-3.816042	67.794788	37.834933	74.341619	-0.699643	0.466263
3.016667	-2.528972	-1.150997	96.268340	0.444952	0.669643	1.058080	1.515891	-1.476170	-0.834209	4.487582	0.078323	24.893505	-0.954339	0.000000	5.163267	-0.417196	-10.012966	12.870701	0.224636	29.653195	13.847905	0.000000	0.295720	-0.260219	1.321304	0.549181	-0.346092	1.403885	0.485838	-0.632697	1.403885	0.337978	-0.632697	1.156141	0.274605	-0.530639	1.073559	0.168974	-0.403080	0.990978	2.112296	-2.943653	7.348696	0.000000	0.000000	26.186683	1.294834	-1.509958	189.761068	-173.097152	229.250216	41.217348	31.718108	0.189593	8.125843	25.140711	-3.750162	68.994064	38.703931	70.501794	1.479655	1.205966
3.033333	-2.603294	-0.987175	96.014641	0.444925	0.670566	1.057549	1.293586	-1.549462	-0.587681	4.432490	0.077362	24.800618	-0.790259	0.000000	4.728118	-0.297623	-9.895560	12.488567	0.217967	29.296740	13.450984	0.000000	0.288375	-0.266175	1.318173	0.535542	-0.354013	1.400559	0.473772	-0.647179	1.400559	0.329584	-0.647179	1.153401	0.267785	-0.542785	1.071016	0.164778	-0.412306	0.988630	2.059836	-3.011030	7.331283	0.000000	0.000000	25.961698	1.084821	-2.052749	189.650155	-172.620641	230.154928	43.563235	27.983800	0.004305	7.443210	24.847404	-3.974149	70.345105	39.937988	66.495102	3.132684	1.766855
3.050000	-2.674714	-0.819178	95.667010	0.444925	0.671409	1.056989	1.089016	-1.625817	-0.321508	4.404444	0.076872	24.752418	-0.550200	0.000000	4.245342	-0.165643	-9.752643	12.036699	0.210080	28.908583	12.931444	0.000000	0.279659	-0.267301	1.333113	0.519355	-0.355511	1.416432	0.459452	-0.649916	1.416432	0.319623	-0.649916	1.166473	0.259692	-0.545081	1.083154	0.159797	-0.414050	0.999834	1.997578	-3.023766	7.414372	0.000000	0.000000	25.794857	0.718981	-2.448121	189.327300	-171.971003	230.729787	45.961777	25.220879	-0.198225	6.712245	24.470610	-4.408864	71.775157	41.431074	62.445036	4.305004	2.047369
3.066667	-2.730750	-0.651039	95.241932	0.444938	0.672145	1.056399	0.902791	-1.694357	-0.065988	4.396507	0.076734	24.750636	-0.214149	0.000000	3.735667	-0.032995	-9.566912	11.545234	0.201502	28.506452	12.275969	0.000000	0.269756	-0.262375	1.366629	0.500964	-0.348958	1.452043	0.443182	-0.637938	1.452043	0.308304	-0.637938	1.195800	0.250496	-0.535034	1.110386	0.154139	-0.406418	1.024971	1.926841	-2.968034	7.600779	0.000000	0.000000	25.686107	0.272751	-2.622449	188.754154	-171.225094	230.805262	48.350357	23.522133	-0.429716	6.001505	24.067961	-4.972131	73.340194	43.048911	58.525583	4.932015	1.957558
